<?xml version="1.0" standalone="no"?><!DOCTYPE svg PUBLIC "-//W3C//DTD SVG 1.1//EN" "http://www.w3.org/Graphics/SVG/1.1/DTD/svg11.dtd"><svg t="1755501158756" class="icon" viewBox="0 0 1024 1024" version="1.1" xmlns="http://www.w3.org/2000/svg" p-id="9232" xmlns:xlink="http://www.w3.org/1999/xlink" width="200" height="200"><path d="M261.99836445 28.82587813L429.87489659 196.75338272h164.19923438l167.92750458-167.87531853a51.78193541 51.78193541 0 0 1 73.27046163 73.27046164L740.56408178 196.75338272h108.0154643a181.23495348 181.23495348 0 0 1 181.2361671 181.23495347v414.253056A181.23495348 181.23495348 0 0 1 848.57954608 973.47634568H175.42045392A181.23495348 181.23495348 0 0 1-5.81571318 792.24139219V377.98833619A181.23495348 181.23495348 0 0 1 175.42045392 196.75338272h107.96449186l-94.65704296-94.70801542a51.78193541 51.78193541 0 0 1 73.27046163-73.27167525z m586.58118163 271.49016177H175.42045392a77.6722963 77.6722963 0 0 0-77.31063467 70.21575585l-0.36166162 7.45654044v414.253056a77.6722963 77.6722963 0 0 0 70.21575585 77.30942104l7.45654044 0.36287527h673.15909216a77.6722963 77.6722963 0 0 0 77.31063467-70.21575586l0.36166162-7.45654045V377.98833619a77.6722963 77.6722963 0 0 0-77.67229629-77.67229629z m-543.70607408 155.3445926A51.78193541 51.78193541 0 0 1 356.65540741 507.4425679v103.56265718a51.78193541 51.78193541 0 0 1-103.56265719 0V507.4425679a51.78193541 51.78193541 0 0 1 51.78072178-51.7819354z m414.253056 0A51.78193541 51.78193541 0 0 1 770.90724978 507.4425679v103.56265718a51.78193541 51.78193541 0 0 1-103.56265719 0V507.4425679a51.78193541 51.78193541 0 0 1 51.78193541-51.7819354z" fill="#fb7299" p-id="9233"></path></svg>